<svg width="1196" height="53" viewBox="0 0 1196 53" fill="none" xmlns="http://www.w3.org/2000/svg">
<path d="M1195.82 0.0441895H15.7432V1.12093H1195.82V0.0441895Z" fill="#F6F7F8"/>
<path d="M1133.65 29.1379H1168.63C1168.85 29.1419 1169.07 29.1864 1169.28 29.2688C1169.48 29.3513 1169.67 29.47 1169.82 29.6183C1169.98 29.7667 1170.1 29.9417 1170.18 30.1333C1170.26 30.325 1170.3 30.5294 1170.3 30.7351V50.7007C1170.3 50.9064 1170.26 51.1108 1170.18 51.3025C1170.1 51.4941 1169.98 51.6691 1169.82 51.8175C1169.67 51.9658 1169.48 52.0845 1169.28 52.167C1169.07 52.2494 1168.85 52.2939 1168.63 52.2979H1133.65C1133.43 52.2939 1133.21 52.2494 1133.01 52.167C1132.8 52.0845 1132.62 51.9658 1132.46 51.8175C1132.31 51.6691 1132.19 51.4941 1132.1 51.3025C1132.02 51.1108 1131.98 50.9064 1131.99 50.7007V30.7351C1131.98 30.5294 1132.02 30.325 1132.1 30.1333C1132.19 29.9417 1132.31 29.7667 1132.46 29.6183C1132.62 29.47 1132.8 29.3513 1133.01 29.2688C1133.21 29.1864 1133.43 29.1419 1133.65 29.1379Z" fill="url(#paint0_linear_1_389)"/>
<path d="M1161.94 45.006L1161.69 43.8132H1158.96L1158.51 45.006H1156.27L1159.47 37.5769C1159.55 37.3927 1159.68 37.2351 1159.86 37.1275C1160.04 37.02 1160.25 36.9681 1160.46 36.9791H1162.19L1163.91 45.0069L1161.94 45.006ZM1160.7 39.1619L1159.58 42.166H1161.34L1160.7 39.1619ZM1153.42 39.2672C1153.42 40.1441 1156.42 40.3318 1156.42 42.3482C1156.42 44.29 1154.21 45.0042 1152.74 45.0042C1151.91 45.0169 1151.08 44.8674 1150.31 44.5656L1150.63 42.8245C1151.51 43.4878 1154.18 43.6768 1154.18 42.6239C1154.18 41.571 1151.21 41.546 1151.21 39.5415C1151.21 37.4118 1153.74 36.9733 1154.81 36.9733C1155.47 36.9889 1156.12 37.1032 1156.74 37.3115L1156.43 38.978C1155.51 38.5063 1153.42 38.3938 1153.42 39.2708L1153.42 39.2672ZM1146.84 45.006L1148.19 36.9778H1150.34L1148.99 45.006H1146.84ZM1141.69 45.006L1139.82 38.0402C1140.15 38.2298 1140.47 38.441 1140.76 38.6721C1141.66 39.3792 1142.34 40.2883 1142.74 41.311L1142.99 42.5002L1145.04 36.9791H1147.35L1143.93 45.0069L1141.69 45.006ZM1137.9 37.1982L1137.8 37.1707L1137.9 37.1982ZM1137.68 37.1383L1137.63 37.1262L1137.68 37.1383ZM1138.21 37.2949L1138.08 37.2535L1138.21 37.2949ZM1139.7 37.9628C1139.63 37.9247 1139.56 37.8881 1139.5 37.853C1139.56 37.8936 1139.63 37.9286 1139.69 37.9673L1139.7 37.9628ZM1139.18 37.6956C1139.12 37.668 1139.06 37.6387 1139.01 37.6129C1139.06 37.6433 1139.12 37.6725 1139.18 37.7001L1139.18 37.6956ZM1138.65 37.459L1138.53 37.4118L1138.65 37.459Z" fill="#494CA3"/>
<path d="M1142.74 41.3148L1142.02 37.7057C1141.98 37.4882 1141.85 37.2923 1141.66 37.1579C1141.47 37.0235 1141.24 36.9611 1141 36.9829H1137.61L1137.57 37.1183C1138.75 37.4107 1139.84 37.9426 1140.76 38.675C1141.66 39.3822 1142.34 40.2916 1142.74 41.3148Z" fill="#FFC000"/>
<path d="M1075.64 29.2863H1110.35C1110.8 29.2974 1111.23 29.4714 1111.53 29.7707C1111.84 30.0699 1112.01 30.47 1112 30.8834V50.8476C1112.01 51.2611 1111.84 51.6611 1111.53 51.9604C1111.23 52.2597 1110.8 52.4337 1110.35 52.4448H1075.64C1075.19 52.4337 1074.77 52.2597 1074.46 51.9604C1074.15 51.6611 1073.98 51.2611 1073.99 50.8476V30.8843C1073.98 30.4707 1074.15 30.0706 1074.46 29.7711C1074.76 29.4717 1075.19 29.2974 1075.64 29.2863Z" fill="#F1F1F1"/>
<path d="M1074.4 51.9006C1074.13 51.6051 1073.99 51.2331 1073.99 50.8494V30.8843C1073.98 30.4707 1074.15 30.0706 1074.46 29.7711C1074.77 29.4717 1075.19 29.2974 1075.64 29.2863H1110.35C1110.77 29.2871 1111.18 29.4405 1111.48 29.7136L1074.4 51.9006H1074.4Z" fill="white" fill-opacity="0.73"/>
<path d="M1088.62 45.8349L1089.92 43.6701L1089.2 38.471H1090.97L1091.26 41.548L1092.99 38.471H1094.81L1090.61 45.8349H1088.62ZM1083.08 41.9515C1083.35 40.6858 1084.67 40.2841 1086.63 40.2841C1086.75 39.7213 1086.36 39.5802 1085.7 39.6013C1085.12 39.6274 1084.54 39.7501 1084.01 39.9634L1084.16 38.6986C1084.81 38.5143 1085.47 38.4061 1086.15 38.377C1087.37 38.3568 1088.73 38.7173 1088.42 40.1847L1087.67 43.6391H1085.9L1086.01 43.1155C1085.81 43.3109 1085.56 43.4669 1085.29 43.5739C1085.02 43.6808 1084.73 43.7367 1084.43 43.7385C1083.59 43.7348 1082.85 43.2315 1083.08 41.9474L1083.08 41.9515ZM1084.89 41.871C1084.83 41.9437 1084.8 42.0299 1084.79 42.1188C1084.79 42.2077 1084.81 42.296 1084.86 42.3725C1084.91 42.449 1084.99 42.5108 1085.07 42.5501C1085.16 42.5895 1085.26 42.6047 1085.35 42.5942C1085.57 42.6032 1085.79 42.539 1085.96 42.4134C1086.13 42.2878 1086.25 42.1096 1086.29 41.911C1086.31 41.7557 1086.34 41.6019 1086.39 41.4504H1085.94C1085.74 41.4334 1085.54 41.4625 1085.35 41.5354C1085.17 41.6083 1085.01 41.7223 1084.89 41.8674V41.871ZM1076.98 43.6391L1078.44 37.0322H1081.75C1082.04 37.0298 1082.33 37.0926 1082.6 37.2152C1082.86 37.3379 1083.09 37.5167 1083.26 37.737C1083.43 37.9572 1083.54 38.2123 1083.59 38.4809C1083.63 38.7495 1083.6 39.0237 1083.51 39.2806C1083.41 39.8848 1083.08 40.437 1082.58 40.8356C1082.08 41.2341 1081.44 41.4527 1080.78 41.4504H1079.39L1078.92 43.6391H1076.98ZM1079.67 40.1847H1080.58C1080.85 40.1652 1081.1 40.0661 1081.3 39.9032C1081.5 39.7402 1081.63 39.5216 1081.69 39.2806C1081.73 39.1815 1081.75 39.0748 1081.73 38.9689C1081.72 38.8631 1081.68 38.7616 1081.62 38.673C1081.55 38.5844 1081.47 38.5116 1081.37 38.4602C1081.26 38.4089 1081.15 38.3804 1081.04 38.3779H1080.09L1079.67 40.1847Z" fill="#3284AE"/>
<path d="M1100.28 41.9473C1100.56 40.6816 1101.9 40.2813 1103.88 40.2813C1104.02 39.7176 1103.63 39.5783 1102.96 39.5985C1102.36 39.6268 1101.78 39.749 1101.23 39.9597L1101.38 38.6949C1102.04 38.5129 1102.72 38.4051 1103.41 38.3742C1104.65 38.354 1106.01 38.7141 1105.7 40.1806L1104.93 43.634H1103.16L1103.27 43.1127C1102.84 43.508 1102.26 43.732 1101.66 43.7357C1100.8 43.7347 1100.04 43.2323 1100.28 41.9473ZM1102.11 41.8673C1102.06 41.9424 1102.03 42.0304 1102.03 42.1205C1102.03 42.2105 1102.05 42.2988 1102.11 42.3751C1102.16 42.4513 1102.23 42.5123 1102.32 42.5505C1102.41 42.5887 1102.51 42.6026 1102.61 42.5905C1102.82 42.5995 1103.04 42.5351 1103.21 42.4097C1103.38 42.2843 1103.49 42.1063 1103.53 41.9086C1103.57 41.7474 1103.59 41.6065 1103.63 41.4481H1103.2C1102.99 41.429 1102.79 41.4574 1102.6 41.5304C1102.41 41.6034 1102.24 41.7188 1102.11 41.8664L1102.11 41.8673ZM1105.75 43.634L1107.21 37.0073H1109.03L1107.55 43.634H1105.75ZM1094.18 43.634L1095.65 37.0285H1098.94C1099.24 37.0277 1099.53 37.0916 1099.79 37.2147C1100.05 37.3378 1100.28 37.5167 1100.45 37.7364C1100.62 37.9562 1100.73 38.2104 1100.78 38.4781C1100.82 38.7459 1100.79 39.0195 1100.7 39.276C1100.6 39.8823 1100.27 40.4361 1099.77 40.835C1099.27 41.2339 1098.62 41.4508 1097.96 41.4454H1096.59L1096.1 43.6331L1094.18 43.634ZM1096.87 40.1806H1097.76C1098.03 40.1615 1098.28 40.0636 1098.48 39.9008C1098.69 39.738 1098.83 39.5191 1098.88 39.2769C1098.92 39.1764 1098.94 39.0687 1098.92 38.9625C1098.91 38.8564 1098.87 38.7549 1098.8 38.6666C1098.73 38.5783 1098.65 38.506 1098.55 38.4552C1098.44 38.4043 1098.33 38.3764 1098.21 38.3742H1097.27L1096.87 40.1806Z" fill="#3CA9C7"/>
<path d="M1017.5 29.1379H1052.44C1052.9 29.1464 1053.32 29.3192 1053.64 29.6188C1053.95 29.9183 1054.12 30.3199 1054.11 30.7351V50.7007C1054.12 51.1159 1053.95 51.517 1053.64 51.8166C1053.32 52.1161 1052.9 52.2894 1052.44 52.2979H1017.5C1017.04 52.2894 1016.62 52.1161 1016.3 51.8166C1015.99 51.517 1015.82 51.1159 1015.83 50.7007V30.7351C1015.82 30.3199 1015.99 29.9183 1016.3 29.6188C1016.62 29.3192 1017.04 29.1464 1017.5 29.1379Z" fill="#5870BE"/>
<path d="M1032.57 40.714C1032.58 39.0783 1033.1 37.4794 1034.09 36.1194C1035.07 34.7595 1036.48 33.6997 1038.12 33.074C1039.75 32.4482 1041.56 32.2846 1043.3 32.6039C1045.04 32.9232 1046.64 33.711 1047.89 34.8677C1049.15 36.0244 1050 37.4981 1050.35 39.1024C1050.69 40.7068 1050.52 42.3697 1049.84 43.881C1049.16 45.3922 1048.01 46.6837 1046.53 47.5926C1045.06 48.5015 1043.32 48.9867 1041.55 48.9869C1040.37 48.9869 1039.2 48.773 1038.11 48.3572C1037.03 47.9415 1036.04 47.3321 1035.2 46.5639C1034.37 45.7957 1033.71 44.8838 1033.26 43.8801C1032.81 42.8763 1032.57 41.8004 1032.57 40.714Z" fill="#FFAF38"/>
<path d="M1027.8 48.9851C1026.27 48.985 1024.76 48.6242 1023.43 47.9371C1022.09 47.25 1020.97 46.2594 1020.16 45.0594C1019.36 43.8594 1018.9 42.49 1018.84 41.081C1018.77 39.6721 1019.09 38.2702 1019.78 37.0091C1020.46 35.7481 1021.48 34.6697 1022.75 33.8759C1024.01 33.0821 1025.48 32.5994 1027 32.474C1028.53 32.3485 1030.06 32.5843 1031.46 33.159C1032.85 33.7336 1034.07 34.6281 1034.99 35.7574H1033.79V36.3102H1035.4C1035.52 36.4861 1035.63 36.6684 1035.74 36.8526H1033.19V37.4054H1036.03C1036.12 37.5896 1036.19 37.774 1036.26 37.9582H1032.59V38.5105H1036.45C1036.94 40.1446 1036.87 41.8767 1036.26 43.4748H1032.59V44.0276H1036.02C1035.93 44.2183 1035.84 44.3959 1035.74 44.5718H1033.19V45.1246H1035.39C1035.26 45.3181 1035.12 45.5033 1034.98 45.6774H1033.79V46.2302H1034.49C1033.64 47.0964 1032.61 47.7894 1031.46 48.2641C1030.31 48.7388 1029.06 48.9844 1027.8 48.9851Z" fill="#E63737"/>
<path d="M1017.89 42.6964L1018.48 38.4425L1019.33 38.543L1019.92 41.6744C1019.98 41.9659 1020.02 42.1838 1020.04 42.3282C1020.11 42.1791 1020.22 41.9608 1020.36 41.6731L1021.79 38.8342L1022.55 38.924L1021.96 43.1779L1021.42 43.1135L1021.91 39.5532L1020.18 42.9669L1019.67 42.9067L1018.94 39.1394L1018.44 42.7608L1017.89 42.6964ZM1024.87 43.1361C1024.66 43.2776 1024.45 43.3715 1024.26 43.4179C1024.08 43.4645 1023.88 43.4756 1023.67 43.4513C1023.33 43.4111 1023.09 43.2981 1022.93 43.1121C1022.77 42.9241 1022.71 42.7015 1022.74 42.4442C1022.76 42.2934 1022.81 42.16 1022.9 42.0442C1022.99 41.9268 1023.09 41.8368 1023.21 41.7745C1023.34 41.7123 1023.47 41.6702 1023.61 41.648C1023.72 41.6331 1023.88 41.6253 1024.09 41.6247C1024.52 41.6245 1024.84 41.6013 1025.05 41.5553C1025.06 41.484 1025.07 41.4386 1025.07 41.4193C1025.1 41.2065 1025.07 41.0507 1024.99 40.952C1024.87 40.8181 1024.68 40.7356 1024.41 40.7044C1024.17 40.6753 1023.98 40.6972 1023.85 40.7703C1023.72 40.8416 1023.61 40.9833 1023.53 41.1952L1023.02 41.065C1023.1 40.8519 1023.2 40.6849 1023.33 40.5641C1023.45 40.4413 1023.62 40.356 1023.83 40.3083C1024.05 40.2587 1024.28 40.2496 1024.55 40.281C1024.81 40.3122 1025.02 40.3685 1025.18 40.4499C1025.34 40.5313 1025.45 40.624 1025.51 40.728C1025.58 40.83 1025.61 40.9544 1025.62 41.1012C1025.63 41.1923 1025.62 41.3539 1025.58 41.586L1025.49 42.2824C1025.42 42.768 1025.39 43.0768 1025.39 43.209C1025.4 43.3394 1025.42 43.4675 1025.47 43.5933L1024.93 43.5286C1024.89 43.4139 1024.87 43.283 1024.87 43.1361ZM1024.99 41.9644C1024.79 42.0193 1024.5 42.0514 1024.11 42.0606C1023.89 42.0661 1023.73 42.0829 1023.64 42.111C1023.54 42.1391 1023.47 42.1881 1023.41 42.2578C1023.35 42.3255 1023.31 42.4049 1023.3 42.4958C1023.28 42.6351 1023.32 42.7574 1023.41 42.8626C1023.5 42.9681 1023.65 43.0329 1023.86 43.0569C1024.06 43.0808 1024.24 43.0585 1024.41 42.99C1024.58 42.9196 1024.71 42.8124 1024.81 42.6683C1024.88 42.5569 1024.93 42.3862 1024.97 42.156L1024.99 41.9644ZM1026.04 42.7254L1026.57 42.7055C1026.57 42.9159 1026.63 43.084 1026.74 43.2099C1026.86 43.336 1027.04 43.4132 1027.28 43.4414C1027.52 43.4698 1027.71 43.4426 1027.84 43.3596C1027.97 43.2747 1028.04 43.1665 1028.06 43.035C1028.08 42.917 1028.04 42.818 1027.94 42.7382C1027.88 42.6832 1027.71 42.6031 1027.43 42.4978C1027.06 42.3557 1026.81 42.2409 1026.67 42.1536C1026.53 42.0646 1026.43 41.9536 1026.37 41.8206C1026.31 41.686 1026.29 41.5432 1026.31 41.3923C1026.33 41.2549 1026.38 41.1319 1026.46 41.0232C1026.54 40.9127 1026.64 40.8253 1026.76 40.7607C1026.85 40.7104 1026.97 40.6732 1027.11 40.6491C1027.26 40.6233 1027.42 40.6199 1027.58 40.6389C1027.82 40.6676 1028.03 40.7276 1028.2 40.8188C1028.37 40.9102 1028.5 41.021 1028.57 41.1513C1028.64 41.2796 1028.68 41.4454 1028.68 41.6485L1028.16 41.6576C1028.16 41.4962 1028.11 41.3644 1028.01 41.2621C1027.91 41.16 1027.76 41.0969 1027.55 41.0729C1027.31 41.0444 1027.14 41.0638 1027.02 41.1309C1026.91 41.1981 1026.84 41.2848 1026.83 41.3912C1026.82 41.4589 1026.83 41.5224 1026.87 41.5816C1026.9 41.6428 1026.96 41.6971 1027.05 41.7446C1027.1 41.7702 1027.25 41.8329 1027.49 41.9328C1027.85 42.0753 1028.1 42.1871 1028.23 42.2681C1028.37 42.3475 1028.47 42.452 1028.54 42.5818C1028.61 42.7116 1028.63 42.8655 1028.6 43.0435C1028.58 43.2176 1028.51 43.376 1028.38 43.5186C1028.26 43.6594 1028.1 43.7611 1027.89 43.8235C1027.69 43.884 1027.47 43.8999 1027.22 43.8712C1026.82 43.8237 1026.53 43.7042 1026.34 43.5129C1026.15 43.3217 1026.05 43.0592 1026.04 42.7254ZM1030.31 43.6906L1030.32 44.1609C1030.17 44.1744 1030.04 44.1743 1029.92 44.1605C1029.73 44.138 1029.59 44.0906 1029.49 44.0182C1029.39 43.9459 1029.33 43.8588 1029.3 43.757C1029.27 43.6533 1029.28 43.4448 1029.32 43.1314L1029.57 41.3585L1029.19 41.313L1029.24 40.9068L1029.63 40.9522L1029.73 40.1891L1030.3 39.9373L1030.15 41.0138L1030.67 41.0761L1030.62 41.4824L1030.09 41.4201L1029.84 43.222C1029.82 43.371 1029.81 43.4678 1029.83 43.5124C1029.84 43.5573 1029.86 43.5947 1029.9 43.6246C1029.94 43.6548 1030 43.6745 1030.08 43.6837C1030.14 43.6906 1030.21 43.6929 1030.31 43.6906ZM1033.01 43.4765L1033.54 43.6072C1033.42 43.9125 1033.22 44.1385 1032.97 44.2853C1032.71 44.4321 1032.41 44.4842 1032.05 44.4418C1031.6 44.3883 1031.26 44.2076 1031.03 43.8995C1030.8 43.5897 1030.73 43.1844 1030.8 42.6833C1030.87 42.1649 1031.06 41.7783 1031.37 41.5237C1031.67 41.2691 1032.04 41.167 1032.47 41.2175C1032.88 41.2663 1033.2 41.4465 1033.42 41.758C1033.64 42.0695 1033.72 42.4796 1033.65 42.9883C1033.64 43.0193 1033.64 43.0656 1033.63 43.1273L1031.32 42.8547C1031.29 43.1955 1031.35 43.4661 1031.5 43.6664C1031.65 43.8668 1031.85 43.9822 1032.11 44.0127C1032.3 44.0354 1032.47 44.0045 1032.62 43.92C1032.77 43.8354 1032.9 43.6876 1033.01 43.4765ZM1031.41 42.4287L1033.14 42.6328C1033.15 42.3708 1033.11 42.1686 1033.02 42.0261C1032.88 41.8052 1032.68 41.679 1032.41 41.6476C1032.17 41.6192 1031.96 41.6755 1031.77 41.8165C1031.59 41.9578 1031.47 42.1619 1031.41 42.4287ZM1034.07 44.6103L1034.5 41.5287L1034.97 41.5845L1034.91 42.0516C1035.06 41.8473 1035.19 41.7162 1035.3 41.6585C1035.41 41.601 1035.53 41.5795 1035.65 41.594C1035.83 41.6149 1036 41.6922 1036.16 41.826L1035.92 42.2892C1035.8 42.1986 1035.68 42.1458 1035.55 42.1306C1035.43 42.1171 1035.33 42.1397 1035.23 42.1986C1035.12 42.2555 1035.05 42.3426 1034.99 42.4599C1034.91 42.6387 1034.85 42.8384 1034.82 43.0589L1034.59 44.6723L1034.07 44.6103ZM1039.38 43.7222L1039.92 43.9311C1039.74 44.3795 1039.48 44.7073 1039.14 44.9145C1038.8 45.1201 1038.4 45.1966 1037.96 45.144C1037.5 45.0897 1037.14 44.9525 1036.87 44.7326C1036.61 44.511 1036.43 44.2143 1036.33 43.8424C1036.23 43.4707 1036.21 43.0817 1036.26 42.6755C1036.33 42.2325 1036.46 41.8566 1036.68 41.5477C1036.9 41.2371 1037.17 41.0151 1037.51 40.8818C1037.85 40.7468 1038.2 40.7016 1038.58 40.7461C1039.01 40.7966 1039.35 40.9474 1039.61 41.1984C1039.87 41.4495 1040.03 41.7782 1040.09 42.1844L1039.52 42.2492C1039.46 41.928 1039.35 41.6857 1039.18 41.5222C1039.01 41.3587 1038.79 41.2601 1038.5 41.2264C1038.17 41.1876 1037.89 41.2335 1037.65 41.364C1037.4 41.4948 1037.22 41.6874 1037.09 41.9419C1036.97 42.1944 1036.89 42.4609 1036.85 42.7414C1036.8 43.1032 1036.81 43.4257 1036.87 43.7089C1036.94 43.9904 1037.08 44.2111 1037.28 44.3709C1037.49 44.5308 1037.72 44.6261 1037.98 44.6569C1038.3 44.6943 1038.58 44.635 1038.82 44.4791C1039.06 44.3232 1039.25 44.0709 1039.38 43.7222ZM1042.44 45.2135C1042.22 45.355 1042.02 45.4489 1041.83 45.4953C1041.64 45.5419 1041.44 45.553 1041.24 45.5287C1040.9 45.4885 1040.65 45.3755 1040.49 45.1895C1040.33 45.0015 1040.27 44.7789 1040.3 44.5216C1040.32 44.3707 1040.38 44.2374 1040.46 44.1216C1040.55 44.0042 1040.65 43.9142 1040.77 43.8519C1040.9 43.7897 1041.03 43.7476 1041.18 43.7254C1041.28 43.7105 1041.44 43.7027 1041.65 43.7021C1042.08 43.7019 1042.4 43.6787 1042.61 43.6327C1042.62 43.5614 1042.63 43.516 1042.63 43.4967C1042.66 43.2839 1042.63 43.1281 1042.55 43.0293C1042.43 42.8955 1042.24 42.813 1041.98 42.7818C1041.73 42.7527 1041.54 42.7746 1041.41 42.8477C1041.28 42.919 1041.17 43.0607 1041.09 43.2726L1040.59 43.1424C1040.66 42.9293 1040.76 42.7623 1040.89 42.6415C1041.01 42.5187 1041.18 42.4334 1041.39 42.3857C1041.61 42.3361 1041.85 42.327 1042.11 42.3584C1042.38 42.3896 1042.59 42.4459 1042.74 42.5273C1042.9 42.6087 1043.01 42.7014 1043.07 42.8054C1043.14 42.9074 1043.17 43.0318 1043.19 43.1786C1043.19 43.2697 1043.18 43.4313 1043.15 43.6634L1043.05 44.3598C1042.98 44.8454 1042.95 45.1542 1042.95 45.2864C1042.96 45.4168 1042.98 45.5449 1043.03 45.6707L1042.49 45.606C1042.45 45.4912 1042.43 45.3604 1042.44 45.2135ZM1042.55 44.0418C1042.35 44.0967 1042.06 44.1288 1041.67 44.138C1041.45 44.1435 1041.29 44.1603 1041.2 44.1884C1041.11 44.2165 1041.03 44.2655 1040.97 44.3352C1040.91 44.4029 1040.88 44.4823 1040.86 44.5732C1040.84 44.7125 1040.88 44.8347 1040.97 44.94C1041.07 45.0455 1041.21 45.1102 1041.42 45.1343C1041.62 45.1582 1041.8 45.1359 1041.97 45.0674C1042.14 44.997 1042.28 44.8898 1042.37 44.7457C1042.44 44.6343 1042.5 44.4636 1042.53 44.2334L1042.55 44.0418ZM1043.68 45.7468L1044.11 42.6652L1044.58 42.7209L1044.51 43.1881C1044.66 42.9837 1044.79 42.8527 1044.9 42.795C1045.02 42.7375 1045.13 42.716 1045.26 42.7304C1045.43 42.7513 1045.6 42.8286 1045.77 42.9624L1045.52 43.4256C1045.41 43.3351 1045.28 43.2822 1045.16 43.267C1045.04 43.2535 1044.93 43.2762 1044.83 43.335C1044.73 43.392 1044.65 43.4791 1044.6 43.5963C1044.51 43.7752 1044.46 43.9748 1044.43 44.1954L1044.2 45.8087L1043.68 45.7468ZM1047.67 46.2193L1047.73 45.8305C1047.49 46.1129 1047.18 46.2317 1046.8 46.1867C1046.55 46.1576 1046.33 46.063 1046.15 45.9031C1045.96 45.7433 1045.83 45.5358 1045.74 45.2805C1045.67 45.0234 1045.65 44.7372 1045.69 44.4219C1045.74 44.1143 1045.83 43.8418 1045.96 43.6045C1046.1 43.3651 1046.28 43.1909 1046.51 43.0817C1046.73 42.9726 1046.97 42.933 1047.22 42.9631C1047.41 42.9851 1047.57 43.0444 1047.7 43.1409C1047.84 43.2355 1047.94 43.3511 1048.02 43.4876L1048.23 41.9613L1048.75 42.0229L1048.16 46.2768L1047.67 46.2193ZM1046.23 44.4856C1046.18 44.8802 1046.22 45.1851 1046.36 45.4002C1046.5 45.6153 1046.68 45.7363 1046.91 45.7631C1047.14 45.7902 1047.34 45.7203 1047.53 45.5534C1047.72 45.3848 1047.84 45.109 1047.89 44.726C1047.95 44.3042 1047.91 43.9851 1047.77 43.7685C1047.64 43.5519 1047.45 43.4295 1047.21 43.4013C1046.98 43.3738 1046.77 43.4455 1046.59 43.6165C1046.41 43.7877 1046.29 44.0774 1046.23 44.4856Z" fill="white"/>
<path d="M959.667 29.3201H994.625C994.848 29.3241 995.068 29.3689 995.273 29.4514C995.477 29.5339 995.662 29.6526 995.817 29.8009C995.971 29.9492 996.093 30.1243 996.174 30.3159C996.255 30.5075 996.295 30.712 996.29 30.9177V50.8846C996.299 51.2998 996.129 51.7011 995.816 52.0005C995.504 52.2999 995.076 52.4727 994.625 52.4809H959.667C959.216 52.4727 958.788 52.2999 958.475 52.0005C958.163 51.7011 957.993 51.2998 958.002 50.8846V30.9177C957.997 30.712 958.037 30.5075 958.118 30.3159C958.199 30.1243 958.321 29.9492 958.475 29.8009C958.63 29.6526 958.815 29.5339 959.019 29.4514C959.223 29.3689 959.443 29.3241 959.667 29.3201Z" fill="#353A40"/>
<path d="M980.676 44.5787C980.411 44.4549 980.194 44.2599 980.052 44.0201C979.882 43.7266 979.799 43.397 979.812 43.0643C979.798 42.8376 979.832 42.6104 979.913 42.3959C979.994 42.1815 980.121 41.9842 980.286 41.8153C980.461 41.6615 980.669 41.5425 980.896 41.4658C981.123 41.3891 981.365 41.356 981.606 41.3691C981.849 41.3546 982.093 41.3862 982.323 41.4617C982.552 41.5373 982.763 41.6553 982.941 41.8085C983.104 41.9743 983.23 42.1685 983.31 42.3797C983.391 42.5909 983.425 42.8148 983.41 43.0382C983.425 43.3622 983.356 43.6847 983.21 43.9796C983.078 44.2197 982.872 44.4187 982.618 44.5518C982.321 44.6966 981.988 44.7673 981.652 44.7564C981.316 44.7676 980.982 44.7068 980.676 44.5787ZM981.081 42.3523C980.952 42.5719 980.885 42.8174 980.885 43.067C980.885 43.3166 980.952 43.5622 981.081 43.7817C981.149 43.8497 981.232 43.9038 981.324 43.9409C981.416 43.9781 981.515 43.9976 981.615 43.9976C981.715 43.9976 981.814 43.9781 981.906 43.9409C981.998 43.9038 982.081 43.8497 982.149 43.7817C982.3 43.5539 982.367 43.2866 982.339 43.0207C982.36 42.7807 982.289 42.5414 982.139 42.3447C982.073 42.2742 981.99 42.2187 981.897 42.1818C981.805 42.145 981.704 42.1278 981.603 42.1319C981.504 42.1293 981.405 42.1477 981.314 42.1859C981.224 42.2241 981.144 42.2812 981.081 42.3523ZM971.176 44.7231C971.002 44.7073 970.832 44.6617 970.676 44.5886C970.535 44.5175 970.41 44.4213 970.309 44.3057C970.205 44.1961 970.127 44.0681 970.08 43.9293C970.018 43.7503 969.985 43.5641 969.98 43.3765V41.4253H971.05V43.4223C971.045 43.4983 971.057 43.5746 971.084 43.6463C971.111 43.7181 971.154 43.7841 971.209 43.8406C971.33 43.9367 971.485 43.9895 971.645 43.9895C971.805 43.9895 971.959 43.9367 972.08 43.8406C972.135 43.7835 972.178 43.7168 972.205 43.6445C972.232 43.5723 972.243 43.4959 972.238 43.4196V41.4226H973.309V43.3738C973.309 43.5619 973.275 43.7488 973.209 43.9266C973.147 44.0957 973.044 44.2495 972.909 44.3768C972.789 44.4971 972.642 44.5913 972.478 44.653C972.237 44.7303 971.983 44.7673 971.728 44.7618C971.543 44.7584 971.36 44.7452 971.177 44.7222L971.176 44.7231ZM986.305 44.7011L985.006 42.9028V44.7011H983.996V41.4262H984.996L986.304 43.2375V41.4262H987.315V44.7011H986.305ZM976.334 44.7011L975.034 42.9028V44.7011H974.025V41.4262H975.024L976.332 43.2375V41.4262H977.343V44.7011H976.334ZM978.102 44.6925V41.4235H979.182V44.6925H978.102ZM969.903 40.1043C969.671 39.8833 969.534 39.5932 969.516 39.2866L970.537 39.2267C970.548 39.3545 970.594 39.4773 970.671 39.5839C970.727 39.6499 970.799 39.7025 970.882 39.7373C970.964 39.7721 971.054 39.7883 971.145 39.784C971.273 39.7919 971.4 39.7551 971.5 39.6815C971.537 39.6541 971.568 39.6194 971.589 39.5798C971.61 39.5402 971.621 39.4967 971.622 39.4525C971.622 39.4084 971.612 39.3649 971.592 39.3248C971.572 39.2847 971.543 39.2491 971.506 39.2209C971.34 39.1217 971.152 39.0569 970.956 39.0311C970.591 38.9747 970.246 38.8386 969.95 38.6335C969.852 38.5552 969.775 38.4576 969.723 38.3483C969.671 38.239 969.646 38.1207 969.65 38.0015C969.65 37.8323 969.704 37.6668 969.805 37.5252C969.919 37.3673 970.081 37.2446 970.272 37.1726C970.544 37.0765 970.835 37.0327 971.126 37.0444C971.483 37.0225 971.838 37.1042 972.141 37.2783C972.264 37.3676 972.364 37.4801 972.436 37.608C972.508 37.7358 972.549 37.8762 972.557 38.02L971.546 38.0762C971.532 37.9538 971.472 37.8397 971.376 37.7546C971.274 37.6828 971.147 37.6473 971.019 37.6543C970.919 37.6475 970.819 37.674 970.737 37.729C970.707 37.751 970.683 37.7789 970.667 37.8108C970.65 37.8427 970.642 37.8776 970.642 37.9129C970.643 37.9405 970.651 37.9675 970.664 37.9921C970.678 38.0166 970.697 38.0384 970.721 38.0551C970.83 38.1191 970.954 38.1599 971.082 38.1747C971.429 38.234 971.768 38.331 972.09 38.4639C972.272 38.5442 972.426 38.6704 972.533 38.8278C972.626 38.9744 972.674 39.1415 972.671 39.3113C972.672 39.5175 972.608 39.7195 972.486 39.8924C972.361 40.0709 972.181 40.2113 971.969 40.2959C971.704 40.3945 971.42 40.4416 971.134 40.4335C970.693 40.476 970.251 40.3573 969.903 40.1034V40.1043ZM986.306 40.3715L985.007 38.5728V40.3715H983.997V37.097H984.997L986.305 38.9087V37.097H987.316V40.3715H986.306ZM982.433 40.3715L981.86 39.3702C981.814 39.2753 981.747 39.1898 981.665 39.1188C981.588 39.0681 981.496 39.0413 981.401 39.0423H981.306V40.3715H980.228V37.097H982.016C982.272 37.0877 982.529 37.1147 982.776 37.1771C982.95 37.2294 983.1 37.334 983.201 37.4744C983.312 37.632 983.368 37.8173 983.362 38.0051C983.366 38.1693 983.324 38.3318 983.239 38.4761C983.157 38.6072 983.04 38.7168 982.899 38.7954C982.782 38.8569 982.655 38.9011 982.522 38.9263C982.622 38.9533 982.716 38.9935 982.802 39.0459C982.866 39.0972 982.924 39.1553 982.973 39.2191C983.03 39.2822 983.081 39.3502 983.124 39.422L983.644 40.3715H982.433ZM981.307 38.4225H981.76C981.856 38.4162 981.951 38.401 982.044 38.378C982.113 38.3648 982.175 38.3285 982.218 38.2759C982.263 38.2211 982.287 38.154 982.286 38.0852C982.289 38.0397 982.281 37.9943 982.262 37.9521C982.244 37.9098 982.215 37.8717 982.179 37.841C982.059 37.7732 981.918 37.7439 981.779 37.7573H981.307V38.4225ZM976.71 40.3715V37.097H979.586V37.796H977.788V38.3164H979.459V38.9852H977.788V39.6302H979.641V40.3715H976.71ZM974.06 40.3715V37.9057H972.966V37.097H976.229V37.9057H975.129V40.3715H974.06ZM966.2 40.3715V37.097H969.076V37.796H967.278V38.3164H968.947V38.9852H967.27V39.6302H969.121V40.3715H966.2ZM964.035 40.3715L963.426 38.3092L962.82 40.3715H961.767L960.995 37.097H962.014L962.381 38.9299L962.919 37.097H963.934L964.472 38.9281L964.839 37.097H965.854L965.088 40.3715H964.035Z" fill="#ECD345"/>
<path d="M992.103 44.7583V37.0391H993.302V44.7583H992.103ZM989.115 44.7583V37.0391H990.314V44.7583H989.115Z" fill="#ECD345"/>
<path d="M10.2909 40.2254C10.2909 37.5514 8.13491 35.3954 5.46091 35.3954C2.80091 35.3954 0.630908 37.5514 0.630908 40.2254C0.630908 42.8854 2.80091 45.0554 5.46091 45.0554C8.13491 45.0554 10.2909 42.8854 10.2909 40.2254ZM9.85691 40.2254C9.85691 42.6474 7.88291 44.6214 5.46091 44.6214C3.03891 44.6214 1.06491 42.6474 1.06491 40.2254C1.06491 37.8034 3.03891 35.8294 5.46091 35.8294C7.88291 35.8294 9.85691 37.8034 9.85691 40.2254ZM7.18291 41.9334C6.81891 42.4234 6.16091 42.7454 5.48891 42.7454C4.22891 42.7454 3.09491 41.6814 3.09491 40.2114C3.09491 38.6994 4.22891 37.6914 5.48891 37.6914C6.14691 37.6914 6.81891 37.9994 7.18291 38.4894L7.53291 38.1534C7.04291 37.5794 6.35691 37.2294 5.48891 37.2294C3.87891 37.2294 2.57691 38.5034 2.57691 40.2114C2.57691 41.9194 3.87891 43.2074 5.48891 43.2074C6.35691 43.2074 7.04291 42.8714 7.54691 42.2834L7.18291 41.9334ZM21.6888 44.9014V43.8654H17.1108C19.7148 41.8074 21.6468 40.0714 21.6468 38.1674C21.6468 36.3054 20.0648 35.4234 18.5108 35.4234C17.1948 35.4234 15.9768 35.9554 15.2628 36.8934L15.9768 37.6354C16.5228 36.9354 17.3908 36.4594 18.5108 36.4594C19.4768 36.4594 20.4568 36.9774 20.4568 38.1674C20.4568 39.7774 18.6368 41.3314 15.2768 43.9774V44.9014H21.6888ZM27.0352 45.0694C29.5832 45.0694 30.6052 42.5074 30.6052 40.2394C30.6052 37.9574 29.5832 35.4234 27.0352 35.4234C24.4732 35.4234 23.4652 37.9574 23.4652 40.2394C23.4652 42.5074 24.4732 45.0694 27.0352 45.0694ZM27.0352 44.0334C25.2572 44.0334 24.6552 42.1014 24.6552 40.2394C24.6552 38.3774 25.2572 36.4594 27.0352 36.4594C28.8132 36.4594 29.4152 38.3774 29.4152 40.2394C29.4152 42.1014 28.8132 44.0334 27.0352 44.0334ZM34.9775 44.9014V35.5634H33.9555L31.6175 37.9714L32.3175 38.6854L33.8155 37.1034V44.9014H34.9775ZM40.1416 45.0694C41.9756 45.0694 43.4876 44.1174 43.4876 42.5354C43.4876 41.2894 42.4236 40.4354 41.2616 40.0854C42.3396 39.7774 43.3476 39.0774 43.3476 37.8454C43.3476 36.1654 41.6816 35.4234 40.1416 35.4234C38.5876 35.4234 36.9496 36.1654 36.9496 37.8454C36.9496 39.0774 37.9436 39.7774 39.0216 40.0854C37.8596 40.4354 36.7956 41.2894 36.7956 42.5354C36.7956 44.1314 38.2936 45.0694 40.1416 45.0694ZM40.1416 39.6094C39.5816 39.5114 38.1116 39.1334 38.1116 37.9994C38.1116 37.0334 39.0076 36.4594 40.1416 36.4594C41.2616 36.4594 42.1716 37.0334 42.1716 37.9994C42.1716 39.1334 40.7156 39.5114 40.1416 39.6094ZM40.1416 44.0334C38.9796 44.0334 37.9576 43.4174 37.9576 42.4094C37.9576 41.1914 39.5676 40.6734 40.1416 40.6034C40.7156 40.6734 42.3116 41.1914 42.3116 42.4094C42.3116 43.4174 41.2896 44.0334 40.1416 44.0334ZM55.0218 44.9014V43.8654H50.0658V40.6454H54.9238V39.6094H50.0658V36.5994H55.0218V35.5634H48.9038V44.9014H55.0218ZM59.8145 45.0694C61.0465 45.0694 61.7745 44.5654 62.2925 43.8934L61.5925 43.2494C61.1445 43.8514 60.5705 44.1314 59.8705 44.1314C58.4285 44.1314 57.5325 43.0114 57.5325 41.5134C57.5325 40.0154 58.4285 38.9094 59.8705 38.9094C60.5705 38.9094 61.1445 39.1754 61.5925 39.7914L62.2925 39.1474C61.7745 38.4754 61.0465 37.9714 59.8145 37.9714C57.7985 37.9714 56.4405 39.5114 56.4405 41.5134C56.4405 43.5294 57.7985 45.0694 59.8145 45.0694ZM66.7181 45.0694C68.7761 45.0694 70.0641 43.4734 70.0641 41.5134C70.0641 39.5534 68.7761 37.9714 66.7181 37.9714C64.6601 37.9714 63.3721 39.5534 63.3721 41.5134C63.3721 43.4734 64.6601 45.0694 66.7181 45.0694ZM66.7181 44.1314C65.2761 44.1314 64.4641 42.8994 64.4641 41.5134C64.4641 40.1414 65.2761 38.9094 66.7181 38.9094C68.1601 38.9094 68.9581 40.1414 68.9581 41.5134C68.9581 42.8994 68.1601 44.1314 66.7181 44.1314ZM80.9878 44.9014V40.0154C80.9878 38.6574 80.3298 37.9714 79.0978 37.9714C78.1178 37.9714 77.2078 38.6154 76.8298 39.2314C76.6338 38.5314 76.0458 37.9714 75.0098 37.9714C74.0158 37.9714 73.1058 38.6854 72.8258 39.1194V38.1394H71.7758V44.9014H72.8258V39.9594C73.1898 39.4134 73.9178 38.9094 74.6038 38.9094C75.4858 38.9094 75.8498 39.4554 75.8498 40.3094V44.9014H76.8998V39.9454C77.2498 39.4134 77.9918 38.9094 78.6918 38.9094C79.5598 38.9094 79.9378 39.4554 79.9378 40.3094V44.9014H80.9878ZM92.2945 44.9014V40.0154C92.2945 38.6574 91.6365 37.9714 90.4045 37.9714C89.4245 37.9714 88.5145 38.6154 88.1365 39.2314C87.9405 38.5314 87.3525 37.9714 86.3165 37.9714C85.3225 37.9714 84.4125 38.6854 84.1325 39.1194V38.1394H83.0825V44.9014H84.1325V39.9594C84.4965 39.4134 85.2245 38.9094 85.9105 38.9094C86.7925 38.9094 87.1565 39.4554 87.1565 40.3094V44.9014H88.2065V39.9454C88.5565 39.4134 89.2985 38.9094 89.9985 38.9094C90.8665 38.9094 91.2445 39.4554 91.2445 40.3094V44.9014H92.2945ZM97.4411 45.0694C98.5471 45.0694 99.4571 44.7054 100.129 44.0334L99.6251 43.3474C99.0931 43.8934 98.3091 44.2014 97.5391 44.2014C96.0831 44.2014 95.1871 43.1374 95.1031 41.8634H100.577V41.5974C100.577 39.5674 99.3731 37.9714 97.3291 37.9714C95.3971 37.9714 93.9971 39.5534 93.9971 41.5134C93.9971 43.6274 95.4391 45.0694 97.4411 45.0694ZM99.5411 41.0934H95.1031C95.1591 40.0574 95.8731 38.8394 97.3151 38.8394C98.8551 38.8394 99.5271 40.0854 99.5411 41.0934ZM103.328 44.9014V40.1134C103.636 39.5674 104.518 39.0354 105.162 39.0354C105.33 39.0354 105.456 39.0494 105.582 39.0774V37.9994C104.658 37.9994 103.874 38.5174 103.328 39.2314V38.1394H102.278V44.9014H103.328ZM109.881 45.0694C111.113 45.0694 111.841 44.5654 112.359 43.8934L111.659 43.2494C111.211 43.8514 110.637 44.1314 109.937 44.1314C108.495 44.1314 107.599 43.0114 107.599 41.5134C107.599 40.0154 108.495 38.9094 109.937 38.9094C110.637 38.9094 111.211 39.1754 111.659 39.7914L112.359 39.1474C111.841 38.4754 111.113 37.9714 109.881 37.9714C107.865 37.9714 106.507 39.5114 106.507 41.5134C106.507 43.5294 107.865 45.0694 109.881 45.0694ZM116.883 45.0694C117.989 45.0694 118.899 44.7054 119.571 44.0334L119.067 43.3474C118.535 43.8934 117.751 44.2014 116.981 44.2014C115.525 44.2014 114.629 43.1374 114.545 41.8634H120.019V41.5974C120.019 39.5674 118.815 37.9714 116.771 37.9714C114.839 37.9714 113.439 39.5534 113.439 41.5134C113.439 43.6274 114.881 45.0694 116.883 45.0694ZM118.983 41.0934H114.545C114.601 40.0574 115.315 38.8394 116.757 38.8394C118.297 38.8394 118.969 40.0854 118.983 41.0934ZM127.037 45.0694C127.653 45.0694 128.031 44.8874 128.297 44.6354L127.989 43.8514C127.849 44.0054 127.569 44.1314 127.275 44.1314C126.813 44.1314 126.589 43.7674 126.589 43.2634V39.0634H127.961V38.1394H126.589V36.2914H125.539V38.1394H124.419V39.0634H125.539V43.4874C125.539 44.4954 126.043 45.0694 127.037 45.0694ZM135.072 44.9014V40.1274C135.072 38.6574 134.33 37.9714 132.916 37.9714C131.894 37.9714 130.97 38.5594 130.494 39.1194V35.5634H129.444V44.9014H130.494V39.9594C130.9 39.4134 131.684 38.9094 132.496 38.9094C133.406 38.9094 134.022 39.2594 134.022 40.4494V44.9014H135.072ZM140.22 45.0694C141.326 45.0694 142.236 44.7054 142.908 44.0334L142.404 43.3474C141.872 43.8934 141.088 44.2014 140.318 44.2014C138.862 44.2014 137.966 43.1374 137.882 41.8634H143.356V41.5974C143.356 39.5674 142.152 37.9714 140.108 37.9714C138.176 37.9714 136.776 39.5534 136.776 41.5134C136.776 43.6274 138.218 45.0694 140.22 45.0694ZM142.32 41.0934H137.882C137.938 40.0574 138.652 38.8394 140.094 38.8394C141.634 38.8394 142.306 40.0854 142.32 41.0934ZM154.269 44.9014V40.0154C154.269 38.6574 153.611 37.9714 152.379 37.9714C151.399 37.9714 150.489 38.6154 150.111 39.2314C149.915 38.5314 149.327 37.9714 148.291 37.9714C147.297 37.9714 146.387 38.6854 146.107 39.1194V38.1394H145.057V44.9014H146.107V39.9594C146.471 39.4134 147.199 38.9094 147.885 38.9094C148.767 38.9094 149.131 39.4554 149.131 40.3094V44.9014H150.181V39.9454C150.531 39.4134 151.273 38.9094 151.973 38.9094C152.841 38.9094 153.219 39.4554 153.219 40.3094V44.9014H154.269ZM159.416 45.0694C160.522 45.0694 161.432 44.7054 162.104 44.0334L161.6 43.3474C161.068 43.8934 160.284 44.2014 159.514 44.2014C158.058 44.2014 157.162 43.1374 157.078 41.8634H162.552V41.5974C162.552 39.5674 161.348 37.9714 159.304 37.9714C157.372 37.9714 155.972 39.5534 155.972 41.5134C155.972 43.6274 157.414 45.0694 159.416 45.0694ZM161.516 41.0934H157.078C157.134 40.0574 157.848 38.8394 159.29 38.8394C160.83 38.8394 161.502 40.0854 161.516 41.0934ZM168.912 43.0674V40.0014C169.276 39.4134 170.102 38.9094 170.928 38.9094C172.3 38.9094 173.112 40.0294 173.112 41.5274C173.112 43.0254 172.3 44.1314 170.928 44.1314C170.102 44.1314 169.276 43.6554 168.912 43.0674ZM168.912 44.9014V43.8934C169.416 44.5794 170.242 45.0694 171.194 45.0694C172.958 45.0694 174.204 43.7254 174.204 41.5274C174.204 39.3714 172.958 37.9714 171.194 37.9714C170.27 37.9714 169.458 38.4194 168.912 39.1614V35.5634H167.862V44.9014H168.912ZM175.537 47.5474C175.733 47.6034 176.083 47.6454 176.307 47.6454C177.203 47.6314 177.889 47.2534 178.295 46.2734L181.683 38.1394H180.535L178.295 43.6834L176.041 38.1394H174.907L177.735 44.9714L177.287 45.9934C177.049 46.5534 176.741 46.7074 176.279 46.7074C176.111 46.7074 175.859 46.6654 175.705 46.5954L175.537 47.5474ZM193.289 44.9014L195.445 38.1394H194.353L192.701 43.5294L190.923 38.1394H190.027L188.249 43.5294L186.597 38.1394H185.505L187.661 44.9014H188.711L190.475 39.4694L192.239 44.9014H193.289ZM203.57 44.9014L205.726 38.1394H204.634L202.982 43.5294L201.204 38.1394H200.308L198.53 43.5294L196.878 38.1394H195.786L197.942 44.9014H198.992L200.756 39.4694L202.52 44.9014H203.57ZM213.852 44.9014L216.008 38.1394H214.916L213.264 43.5294L211.486 38.1394H210.59L208.812 43.5294L207.16 38.1394H206.068L208.224 44.9014H209.274L211.038 39.4694L212.802 44.9014H213.852ZM217.176 45.0414C217.596 45.0414 217.946 44.6914 217.946 44.2714C217.946 43.8514 217.596 43.5014 217.176 43.5014C216.756 43.5014 216.406 43.8514 216.406 44.2714C216.406 44.6914 216.756 45.0414 217.176 45.0414ZM220.892 43.0674V40.0014C221.256 39.4134 222.082 38.9094 222.908 38.9094C224.28 38.9094 225.092 40.0294 225.092 41.5274C225.092 43.0254 224.28 44.1314 222.908 44.1314C222.082 44.1314 221.256 43.6554 220.892 43.0674ZM220.892 44.9014V43.8934C221.396 44.5794 222.222 45.0694 223.174 45.0694C224.938 45.0694 226.184 43.7254 226.184 41.5274C226.184 39.3714 224.938 37.9714 223.174 37.9714C222.25 37.9714 221.438 38.4194 220.892 39.1614V35.5634H219.842V44.9014H220.892ZM228.413 37.1734C228.805 37.1734 229.127 36.8654 229.127 36.4734C229.127 36.0814 228.805 35.7594 228.413 35.7594C228.035 35.7594 227.713 36.0814 227.713 36.4734C227.713 36.8654 228.035 37.1734 228.413 37.1734ZM228.945 44.9014V38.1394H227.895V44.9014H228.945ZM233.182 45.0694C234.932 45.0694 235.842 44.1594 235.842 43.0254C235.842 40.3934 231.656 41.3734 231.656 39.8894C231.656 39.2874 232.23 38.8254 233.154 38.8254C234.022 38.8254 234.764 39.1894 235.17 39.6794L235.66 38.9514C235.114 38.4054 234.302 37.9714 233.154 37.9714C231.544 37.9714 230.634 38.8674 230.634 39.9174C230.634 42.4234 234.82 41.4154 234.82 43.0534C234.82 43.7254 234.26 44.2154 233.224 44.2154C232.3 44.2154 231.446 43.7674 230.998 43.2494L230.452 44.0054C231.138 44.7334 232.076 45.0694 233.182 45.0694ZM240.599 45.0694C241.705 45.0694 242.615 44.7054 243.287 44.0334L242.783 43.3474C242.251 43.8934 241.467 44.2014 240.697 44.2014C239.241 44.2014 238.345 43.1374 238.261 41.8634H243.735V41.5974C243.735 39.5674 242.531 37.9714 240.487 37.9714C238.555 37.9714 237.155 39.5534 237.155 41.5134C237.155 43.6274 238.597 45.0694 240.599 45.0694ZM242.699 41.0934H238.261C238.317 40.0574 239.031 38.8394 240.473 38.8394C242.013 38.8394 242.685 40.0854 242.699 41.0934ZM251.05 44.9014V40.1554C251.05 38.6854 250.308 37.9714 248.894 37.9714C247.886 37.9714 246.962 38.5594 246.486 39.1194V38.1394H245.436V44.9014H246.486V39.9594C246.878 39.4134 247.662 38.9094 248.488 38.9094C249.398 38.9094 250 39.2874 250 40.4774V44.9014H251.05ZM254.197 43.0674V40.0014C254.561 39.4134 255.387 38.9094 256.213 38.9094C257.585 38.9094 258.397 40.0294 258.397 41.5274C258.397 43.0254 257.585 44.1314 256.213 44.1314C255.387 44.1314 254.561 43.6554 254.197 43.0674ZM254.197 44.9014V43.8934C254.701 44.5794 255.527 45.0694 256.479 45.0694C258.243 45.0694 259.489 43.7254 259.489 41.5274C259.489 39.3714 258.243 37.9714 256.479 37.9714C255.555 37.9714 254.743 38.4194 254.197 39.1614V35.5634H253.147V44.9014H254.197ZM266.478 44.9014V40.2534C266.478 38.6154 265.288 37.9714 263.86 37.9714C262.754 37.9714 261.886 38.3354 261.158 39.0914L261.648 39.8194C262.25 39.1754 262.908 38.8814 263.72 38.8814C264.7 38.8814 265.428 39.3994 265.428 40.3094V41.5274C264.882 40.8974 264.112 40.6034 263.188 40.6034C262.04 40.6034 260.822 41.3174 260.822 42.8294C260.822 44.2994 262.04 45.0694 263.188 45.0694C264.098 45.0694 264.868 44.7474 265.428 44.1314V44.9014H266.478ZM263.566 44.3134C262.586 44.3134 261.9 43.6974 261.9 42.8434C261.9 41.9754 262.586 41.3594 263.566 41.3594C264.308 41.3594 265.022 41.6394 265.428 42.1994V43.4734C265.022 44.0334 264.308 44.3134 263.566 44.3134ZM271.634 45.0694C272.74 45.0694 273.65 44.7054 274.322 44.0334L273.818 43.3474C273.286 43.8934 272.502 44.2014 271.732 44.2014C270.276 44.2014 269.38 43.1374 269.296 41.8634H274.77V41.5974C274.77 39.5674 273.566 37.9714 271.522 37.9714C269.59 37.9714 268.19 39.5534 268.19 41.5134C268.19 43.6274 269.632 45.0694 271.634 45.0694ZM273.734 41.0934H269.296C269.352 40.0574 270.066 38.8394 271.508 38.8394C273.048 38.8394 273.72 40.0854 273.734 41.0934ZM279.425 44.9014L282.239 38.1394H281.091L278.851 43.6834L276.597 38.1394H275.463L278.277 44.9014H279.425ZM282.951 45.0414C283.371 45.0414 283.721 44.6914 283.721 44.2714C283.721 43.8514 283.371 43.5014 282.951 43.5014C282.531 43.5014 282.181 43.8514 282.181 44.2714C282.181 44.6914 282.531 45.0414 282.951 45.0414ZM288.504 45.0694C289.736 45.0694 290.464 44.5654 290.982 43.8934L290.282 43.2494C289.834 43.8514 289.26 44.1314 288.56 44.1314C287.118 44.1314 286.222 43.0114 286.222 41.5134C286.222 40.0154 287.118 38.9094 288.56 38.9094C289.26 38.9094 289.834 39.1754 290.282 39.7914L290.982 39.1474C290.464 38.4754 289.736 37.9714 288.504 37.9714C286.488 37.9714 285.13 39.5114 285.13 41.5134C285.13 43.5294 286.488 45.0694 288.504 45.0694ZM295.408 45.0694C297.466 45.0694 298.754 43.4734 298.754 41.5134C298.754 39.5534 297.466 37.9714 295.408 37.9714C293.35 37.9714 292.062 39.5534 292.062 41.5134C292.062 43.4734 293.35 45.0694 295.408 45.0694ZM295.408 44.1314C293.966 44.1314 293.154 42.8994 293.154 41.5134C293.154 40.1414 293.966 38.9094 295.408 38.9094C296.85 38.9094 297.648 40.1414 297.648 41.5134C297.648 42.8994 296.85 44.1314 295.408 44.1314ZM309.677 44.9014V40.0154C309.677 38.6574 309.019 37.9714 307.787 37.9714C306.807 37.9714 305.897 38.6154 305.519 39.2314C305.323 38.5314 304.735 37.9714 303.699 37.9714C302.705 37.9714 301.795 38.6854 301.515 39.1194V38.1394H300.465V44.9014H301.515V39.9594C301.879 39.4134 302.607 38.9094 303.293 38.9094C304.175 38.9094 304.539 39.4554 304.539 40.3094V44.9014H305.589V39.9454C305.939 39.4134 306.681 38.9094 307.381 38.9094C308.249 38.9094 308.627 39.4554 308.627 40.3094V44.9014H309.677Z" fill="#C1C8CE"/>
<defs>
<linearGradient id="paint0_linear_1_389" x1="1151.14" y1="52.2979" x2="1151.14" y2="29.1379" gradientUnits="userSpaceOnUse">
<stop stop-color="#E59703"/>
<stop offset="0.231" stop-color="#E59703"/>
<stop offset="0.234" stop-color="white"/>
<stop offset="0.761" stop-color="white"/>
<stop offset="0.766" stop-color="#5457BB"/>
<stop offset="1" stop-color="#5457BB"/>
</linearGradient>
</defs>
</svg>
